<?xml version="1.0" encoding="utf-8"?>
<!-- Generator: Adobe Illustrator 16.0.0, SVG Export Plug-In . SVG Version: 6.00 Build 0)  -->
<!DOCTYPE svg PUBLIC "-//W3C//DTD SVG 1.1//EN" "http://www.w3.org/Graphics/SVG/1.1/DTD/svg11.dtd">
<svg version="1.1" id="Layer_1" xmlns="http://www.w3.org/2000/svg" xmlns:xlink="http://www.w3.org/1999/xlink" x="0px" y="0px"
	 width="1000px" height="77px" viewBox="0 0 1000 77" enable-background="new 0 0 1000 77" xml:space="preserve">
<polygon fill="#FFFFFF" points="15,7.995 11,7.995 11,3.995 8,3.995 8,7.995 4,7.995 4,10.995 8,10.995 8,14.995 11,14.995 
	11,10.995 15,10.995 "/>
<rect x="54" y="7.995" fill="#FFFFFF" width="11" height="3"/>
<polygon fill="#FFFFFF" points="115,12.638 111.857,9.495 115,6.352 112.643,3.995 109.5,7.138 106.357,3.995 104,6.352 
	107.143,9.495 104,12.638 106.357,14.995 109.5,11.852 112.643,14.995 "/>
<polygon fill="#FFFFFF" points="157.871,10.535 155.625,8.183 154,10.734 158.142,14.995 165,6.259 163.021,3.995 "/>
<polygon fill="#FFFFFF" points="212.889,5.959 210.768,3.838 207.232,7.374 205.111,9.495 207.232,11.616 210.768,15.152 
	212.889,13.031 209.354,9.495 "/>
<polygon fill="#FFFFFF" points="256.111,13.031 258.232,15.152 261.768,11.616 263.889,9.495 261.768,7.374 258.232,3.838 
	256.111,5.959 259.646,9.495 "/>
<polygon fill="#FFFFFF" points="355.964,6.106 353.843,8.228 357.379,11.763 359.5,13.884 361.621,11.763 365.157,8.228 
	363.036,6.106 359.5,9.642 "/>
<polygon fill="#FFFFFF" points="313.036,12.884 315.157,10.763 311.621,7.228 309.5,5.106 307.379,7.228 303.843,10.763 
	305.964,12.884 309.5,9.349 "/>
<path fill="#FFFFFF" d="M414.062,7.964l-1.684,1.192C412.456,9.421,412.5,9.7,412.5,9.99c0,1.657-1.342,3-3,3s-3-1.343-3-3
	c0-1.622,1.29-2.936,2.9-2.989v2.018l4.248-3.01L409.4,3v2.001c-2.714,0.055-4.9,2.263-4.9,4.989c0,2.762,2.238,5,5,5s5-2.238,5-5
	C414.5,9.268,414.338,8.584,414.062,7.964z"/>
<path fill="#FFFFFF" d="M459.34,12.986c-1.618-0.046-2.915-1.363-2.915-2.991c0-1.622,1.29-2.935,2.9-2.988v2.017l4.248-3.01
	l-4.248-3.009v2.001c-2.714,0.055-4.9,2.263-4.9,4.989c0,2.732,2.193,4.944,4.915,4.991V12.986z"/>
<path fill="#FFFFFF" d="M509.66,12.986c1.617-0.046,2.914-1.363,2.914-2.991c0-1.622-1.289-2.935-2.9-2.988v2.017l-4.248-3.01
	l4.248-3.009v2.001c2.715,0.055,4.9,2.263,4.9,4.989c0,2.732-2.193,4.944-4.914,4.991V12.986z"/>
<g>
	<rect x="554" y="3.995" fill="#FFFFFF" width="3" height="3"/>
	<rect x="558" y="3.995" fill="#FFFFFF" width="3" height="3"/>
	<rect x="562" y="3.995" fill="#FFFFFF" width="3" height="3"/>
	<rect x="554" y="7.995" fill="#FFFFFF" width="3" height="3"/>
	<rect x="558" y="7.995" fill="#FFFFFF" width="3" height="3"/>
	<rect x="562" y="7.995" fill="#FFFFFF" width="3" height="3"/>
	<rect x="554" y="11.995" fill="#FFFFFF" width="3" height="3"/>
	<rect x="558" y="11.995" fill="#FFFFFF" width="3" height="3"/>
	<rect x="562" y="11.995" fill="#FFFFFF" width="3" height="3"/>
</g>
<polygon fill="#FFFFFF" points="659.5,3.294 660.927,7.64 665.5,7.653 661.807,10.352 663.208,14.706 659.5,12.028 655.792,14.706 
	657.192,10.352 653.5,7.653 658.073,7.64 "/>
<path fill="#FFFFFF" d="M614.906,10.5c0.059-0.324,0.094-0.658,0.094-1s-0.035-0.676-0.096-1h-1.807
	c-0.082-0.296-0.199-0.575-0.348-0.837l1.279-1.278c-0.188-0.271-0.398-0.533-0.641-0.774s-0.502-0.453-0.775-0.64l-1.279,1.278
	c-0.26-0.148-0.539-0.265-0.834-0.347V4.095c-0.324-0.06-0.658-0.095-1-0.095s-0.676,0.035-1,0.096v1.807
	c-0.297,0.082-0.576,0.199-0.838,0.348l-1.277-1.278c-0.271,0.187-0.533,0.398-0.773,0.64c-0.242,0.241-0.453,0.503-0.641,0.774
	l1.277,1.278c-0.146,0.261-0.264,0.54-0.346,0.836h-1.807C604.035,8.824,604,9.158,604,9.5s0.035,0.676,0.096,1h1.807
	c0.082,0.295,0.197,0.574,0.346,0.834l-1.277,1.279c0.188,0.271,0.398,0.533,0.641,0.775c0.24,0.242,0.502,0.453,0.773,0.641
	l1.277-1.279c0.262,0.148,0.541,0.266,0.838,0.348v1.807c0.324,0.061,0.658,0.096,1,0.096s0.676-0.035,1-0.096v-1.807
	c0.295-0.082,0.574-0.199,0.836-0.348l1.277,1.277c0.273-0.186,0.533-0.396,0.775-0.639s0.453-0.502,0.641-0.773l-1.279-1.277
	c0.148-0.262,0.266-0.541,0.348-0.838H614.906z M609.5,10.75c-0.691,0-1.25-0.561-1.25-1.25c0-0.69,0.559-1.25,1.25-1.25
	c0.689,0,1.25,0.56,1.25,1.25C610.75,10.189,610.189,10.75,609.5,10.75z"/>
<path fill="#FFFFFF" d="M709.5,3.739l-5.5,9.521h11L709.5,3.739z M710.25,12.25h-1.5v-1.5h1.5V12.25z M708.75,10V7h1.5v3H708.75z"/>
<g>
	<rect x="758" y="9" fill="#FFFFFF" width="3" height="6"/>
	<rect x="758" y="4" fill="#FFFFFF" width="3" height="3"/>
</g>
<polygon fill="#FFFFFF" points="809.5,3.75 803.5,9.25 806,9.25 806,14.25 808.5,14.25 808.5,11.765 810.5,11.765 810.5,14.25 
	813,14.25 813,9.25 815.5,9.25 "/>
<path fill="#FFFFFF" d="M861.465,5.101c-1.758-1.758-4.606-1.758-6.364,0c-1.758,1.758-1.758,4.606,0,6.364
	c1.487,1.488,3.751,1.702,5.479,0.67l3.083,3.083l1.555-1.555l-3.083-3.083C863.166,8.852,862.952,6.588,861.465,5.101z
	 M859.874,9.873c-0.88,0.88-2.304,0.879-3.183,0c-0.879-0.878-0.88-2.302,0-3.182s2.304-0.879,3.182,0
	C860.752,7.57,860.753,8.994,859.874,9.873z"/>
<polygon fill="#B7B7B8" points="15,57.995 11,57.995 11,53.995 8,53.995 8,57.995 4,57.995 4,60.995 8,60.995 8,64.995 11,64.995 
	11,60.995 15,60.995 "/>
<rect x="54" y="57.995" fill="#B7B7B8" width="11" height="3"/>
<polygon fill="#B7B7B8" points="115,62.638 111.857,59.495 115,56.353 112.643,53.995 109.5,57.138 106.357,53.995 104,56.353 
	107.143,59.495 104,62.638 106.357,64.995 109.5,61.853 112.643,64.995 "/>
<polygon fill="#B7B7B8" points="157.871,60.535 155.625,58.183 154,60.734 158.142,64.995 165,56.259 163.021,53.995 "/>
<polygon fill="#B7B7B8" points="212.889,55.96 210.768,53.839 207.232,57.374 205.111,59.495 207.232,61.616 210.768,65.151 
	212.889,63.03 209.354,59.495 "/>
<polygon fill="#B7B7B8" points="256.111,63.03 258.232,65.151 261.768,61.616 263.889,59.495 261.768,57.374 258.232,53.839 
	256.111,55.96 259.646,59.495 "/>
<polygon fill="#B7B7B8" points="355.964,56.106 353.843,58.228 357.379,61.763 359.5,63.884 361.621,61.763 365.157,58.228 
	363.036,56.106 359.5,59.642 "/>
<polygon fill="#B7B7B8" points="313.036,62.884 315.157,60.763 311.621,57.228 309.5,55.106 307.379,57.228 303.843,60.763 
	305.964,62.884 309.5,59.349 "/>
<path fill="#B7B7B8" d="M414.062,57.964l-1.684,1.192c0.078,0.265,0.122,0.544,0.122,0.834c0,1.657-1.342,3-3,3s-3-1.343-3-3
	c0-1.622,1.29-2.936,2.9-2.989v2.018l4.248-3.01L409.4,53v2.001c-2.714,0.055-4.9,2.263-4.9,4.989c0,2.762,2.238,5,5,5s5-2.238,5-5
	C414.5,59.268,414.338,58.584,414.062,57.964z"/>
<path fill="#B7B7B8" d="M459.34,62.985c-1.618-0.045-2.915-1.363-2.915-2.99c0-1.623,1.29-2.936,2.9-2.988v2.016l4.248-3.01
	l-4.248-3.008v2c-2.714,0.055-4.9,2.264-4.9,4.99c0,2.732,2.193,4.943,4.915,4.99V62.985z"/>
<path fill="#B7B7B8" d="M509.66,62.985c1.617-0.045,2.914-1.363,2.914-2.99c0-1.623-1.289-2.936-2.9-2.988v2.016l-4.248-3.01
	l4.248-3.008v2c2.715,0.055,4.9,2.264,4.9,4.99c0,2.732-2.193,4.943-4.914,4.99V62.985z"/>
<g>
	<rect x="554" y="53.995" fill="#B7B7B8" width="3" height="3"/>
	<rect x="558" y="53.995" fill="#B7B7B8" width="3" height="3"/>
	<rect x="562" y="53.995" fill="#B7B7B8" width="3" height="3"/>
	<rect x="554" y="57.995" fill="#B7B7B8" width="3" height="3"/>
	<rect x="558" y="57.995" fill="#B7B7B8" width="3" height="3"/>
	<rect x="562" y="57.995" fill="#B7B7B8" width="3" height="3"/>
	<rect x="554" y="61.995" fill="#B7B7B8" width="3" height="3"/>
	<rect x="558" y="61.995" fill="#B7B7B8" width="3" height="3"/>
	<rect x="562" y="61.995" fill="#B7B7B8" width="3" height="3"/>
</g>
<polygon fill="#B7B7B8" points="659.5,53.294 660.927,57.64 665.5,57.653 661.807,60.352 663.208,64.706 659.5,62.028 
	655.792,64.706 657.192,60.352 653.5,57.653 658.073,57.64 "/>
<path fill="#B7B7B8" d="M614.906,60.5c0.059-0.324,0.094-0.658,0.094-1s-0.035-0.676-0.096-1h-1.807
	c-0.082-0.296-0.199-0.575-0.348-0.837l1.279-1.278c-0.188-0.271-0.398-0.533-0.641-0.774s-0.502-0.453-0.775-0.64l-1.279,1.278
	c-0.26-0.148-0.539-0.265-0.834-0.347v-1.808c-0.324-0.06-0.658-0.095-1-0.095s-0.676,0.035-1,0.096v1.807
	c-0.297,0.082-0.576,0.199-0.838,0.348l-1.277-1.278c-0.271,0.187-0.533,0.398-0.773,0.64c-0.242,0.241-0.453,0.503-0.641,0.774
	l1.277,1.278c-0.146,0.261-0.264,0.54-0.346,0.836h-1.807c-0.061,0.324-0.096,0.658-0.096,1s0.035,0.676,0.096,1h1.807
	c0.082,0.295,0.197,0.574,0.346,0.834l-1.277,1.279c0.188,0.271,0.398,0.533,0.641,0.775c0.24,0.242,0.502,0.453,0.773,0.641
	l1.277-1.279c0.262,0.148,0.541,0.266,0.838,0.348v1.807c0.324,0.061,0.658,0.096,1,0.096s0.676-0.035,1-0.096v-1.807
	c0.295-0.082,0.574-0.199,0.836-0.348l1.277,1.277c0.273-0.186,0.533-0.396,0.775-0.639s0.453-0.502,0.641-0.773l-1.279-1.277
	c0.148-0.262,0.266-0.541,0.348-0.838H614.906z M609.5,60.75c-0.691,0-1.25-0.561-1.25-1.25c0-0.69,0.559-1.25,1.25-1.25
	c0.689,0,1.25,0.56,1.25,1.25C610.75,60.189,610.189,60.75,609.5,60.75z"/>
<path fill="#B7B7B8" d="M709.5,53.739l-5.5,9.521h11L709.5,53.739z M710.25,62.25h-1.5v-1.5h1.5V62.25z M708.75,60v-3h1.5v3H708.75z
	"/>
<g>
	<rect x="758" y="59" fill="#B7B7B8" width="3" height="6"/>
	<rect x="758" y="54" fill="#B7B7B8" width="3" height="3"/>
</g>
<polygon fill="#B7B7B8" points="809.5,53.75 803.5,59.25 806,59.25 806,64.25 808.5,64.25 808.5,61.765 810.5,61.765 810.5,64.25 
	813,64.25 813,59.25 815.5,59.25 "/>
<path fill="#B7B7B8" d="M861.465,55.101c-1.758-1.758-4.606-1.758-6.364,0s-1.758,4.606,0,6.363
	c1.487,1.488,3.751,1.702,5.479,0.671l3.083,3.083l1.555-1.555l-3.083-3.084C863.166,58.852,862.952,56.588,861.465,55.101z
	 M859.874,59.873c-0.88,0.88-2.304,0.879-3.183,0c-0.879-0.878-0.88-2.302,0-3.182s2.304-0.879,3.182,0
	C860.752,57.57,860.753,58.993,859.874,59.873z"/>
</svg>
