<?xml version="1.0" encoding="utf-8"?>
<!-- Generator: Adobe Illustrator 16.0.0, SVG Export Plug-In . SVG Version: 6.00 Build 0)  -->
<!DOCTYPE svg PUBLIC "-//W3C//DTD SVG 1.1//EN" "http://www.w3.org/Graphics/SVG/1.1/DTD/svg11.dtd">
<svg version="1.1" id="Layer_1" xmlns="http://www.w3.org/2000/svg" xmlns:xlink="http://www.w3.org/1999/xlink" x="0px" y="0px"
	 width="20px" height="20px" viewBox="0 0 20 20" enable-background="new 0 0 20 20" xml:space="preserve">
<path fill="#ED1C24" d="M10,0.5c-5.247,0-9.5,4.252-9.5,9.5c0,5.247,4.253,9.5,9.5,9.5c5.247,0,9.5-4.253,9.5-9.5
	C19.5,4.753,15.247,0.5,10,0.5z M16.333,10c0,1.173-0.34,2.258-0.896,3.2L6.801,4.562C7.743,4.006,8.827,3.666,10,3.666
	C13.497,3.666,16.333,6.501,16.333,10z M10,16.333c-3.497,0-6.333-2.836-6.333-6.333c0-1.172,0.34-2.256,0.896-3.199l8.637,8.637
	C12.256,15.993,11.172,16.333,10,16.333z"/>
</svg>
